<svg width="32" height="32" viewBox="0 0 32 32" fill="none" xmlns="http://www.w3.org/2000/svg">
<path fill-rule="evenodd" clip-rule="evenodd" d="M12.4587 23.1666C12.917 23.3166 13.332 23.574 13.6696 23.9163C13.7062 23.9534 13.7419 23.9914 13.7766 24.0305L17.297 27.9908C18.2928 29.1111 20.1198 28.7895 20.6732 27.3965L20.9427 26.7182C21.2581 25.9242 21.895 25.301 22.6957 25.0029L25.2848 24.0389C25.7206 23.8766 26.113 23.6159 26.4315 23.2771L30.4536 18.9983C30.4891 18.9605 30.523 18.9215 30.5552 18.8814C30.8542 18.5099 31.0109 18.0448 30.9994 17.5704C30.9973 17.4816 30.9892 17.3925 30.9751 17.3036L30.3424 13.3169C30.2686 12.8516 30.0869 12.41 29.8119 12.0274L26.4387 7.33463C26.1069 6.87298 25.6515 6.51436 25.1249 6.30002L18.3826 3.55577C17.9561 3.38219 17.4956 3.30841 17.0363 3.34006L9.26365 3.87567C8.56433 3.92386 7.90355 4.21379 7.39456 4.69577L2.72413 9.11837C2.40942 9.41638 2.16253 9.77863 2.00024 10.1805L1.22044 12.1116C0.607781 13.6287 1.31461 15.3579 2.81461 16.0114L3.61263 16.3591C3.64179 16.3718 3.67073 16.385 3.69942 16.3986C4.11463 16.5953 4.47917 16.8841 4.76559 17.2425C4.80146 17.2873 4.83612 17.3333 4.86949 17.3803L7.34461 20.8688C7.40755 20.9575 7.47501 21.0425 7.54661 21.1233C7.85152 21.4677 8.23145 21.7383 8.65756 21.9138C8.72667 21.9423 8.79703 21.9682 8.86845 21.9916L12.4587 23.1666ZM13.7773 22.2847C13.4962 22.1155 13.1959 21.9778 12.8814 21.8749L9.59324 20.7987L12.5256 17.3041L18.638 17.8388L17.2181 20.2982L13.7773 22.2847ZM8.43798 20.061L11.8733 15.967L10.0468 10.9486L5.65121 16.187C5.76775 16.3156 5.87691 16.4514 5.97798 16.5938L8.43798 20.061ZM4.59303 15.3336L8.83134 10.2826H3.49662C3.39927 10.406 3.31967 10.5429 3.26051 10.6894L2.48072 12.6205C2.14375 13.4549 2.53251 14.406 3.35751 14.7654L4.15552 15.1131C4.30582 15.1786 4.45185 15.2523 4.59303 15.3336ZM4.90667 8.92346H9.30967L8.18111 5.82278L4.90667 8.92346ZM9.41097 5.22789L17.0273 4.70306V8.92346H10.756L9.41097 5.22789ZM18.3865 5.02477V9.29299L21.6739 12.5804L24.5806 7.54591L18.3865 5.02477ZM25.6007 8.49738L20.8817 16.6708L29.6198 17.4353L29.0001 13.5299C28.9595 13.274 28.8596 13.0311 28.7083 12.8207L25.6007 8.49738ZM28.8391 18.7313L20.1319 17.9695L18.7175 20.4193L24.9712 22.6955C25.1469 22.608 25.3061 22.4898 25.4412 22.3461L28.8391 18.7313ZM23.0202 23.4317L17.7998 21.5317L14.875 23.2204L18.3128 27.0878C18.6365 27.4519 19.2302 27.3474 19.4101 26.8946L19.6796 26.2164C20.1369 25.0651 21.0605 24.1614 22.2214 23.7292L23.0202 23.4317ZM19.3878 16.5401L20.9704 13.799L17.9778 10.8064L13.5921 16.033L19.3878 16.5401ZM16.6431 10.2826L12.8821 14.7647L11.2507 10.2826H16.6431Z" fill="#EBAD73"/>
</svg>
