<svg xmlns="http://www.w3.org/2000/svg">
    <!-- logo -->
    <symbol id="logo" viewBox="0 0 207 62">
     <path fill-rule="evenodd" clip-rule="evenodd" d="M82.022.174h5.826c9.674 0 14.456 3.573 14.456 9.014 0 5.387-4.122 8.905-13.467 8.905-2.473 0-2.748.494-2.748 2.528v1.704c0 1.058.423 2.063.79 2.935.28.67.53 1.26.53 1.737 0 1.155-1.925 1.704-4.838 1.704h-.55c-2.858 0-4.781-.55-4.781-1.704 0-.477.238-1.068.507-1.737.352-.872.757-1.877.757-2.935V6.55c0-1.058-.405-2.063-.757-2.935-.27-.669-.507-1.26-.507-1.737 0-1.154 1.923-1.704 4.782-1.704Zm4.067 12.587c0 1.704.66 2.144 2.309 2.144 4.232 0 6.156-2.748 6.156-5.497 0-2.803-1.65-5.881-6.321-5.881-1.924 0-2.144.55-2.144 3.023v6.211ZM101.507 18.972c0-6.32 4.892-10.059 10.828-10.059 5.992 0 10.829 3.738 10.829 10.06 0 6.265-4.837 10.003-10.829 10.003-5.936 0-10.828-3.738-10.828-10.004Zm7.915-3.792c0 3.352 1.979 12.312 4.452 11.707 1.43-.384 1.814-4.232.935-8.63-.935-4.342-2.748-7.585-4.123-7.2-.879.165-1.264 1.76-1.264 4.123Z" /><path d="M133.493 13.256c0-1.21.715-2.144 1.814-2.144 1.154 0 1.759.605 2.089 2.364.439 2.143 1.594 3.023 3.517 3.023 2.529 0 3.848-1.979 2.969-4.178-.935-2.143-4.178-3.408-8.135-3.408-5.277 0-10.389 2.09-10.389 6.047 0 3.353 3.243 4.617 6.871 5.606 3.243.935 4.397 2.199 4.397 3.628 0 1.54-1.099 2.584-2.583 2.584-1.319 0-2.364-.825-2.474-2.804-.11-2.088-1.649-3.133-3.573-3.133-2.583 0-3.957 2.144-3.078 4.342 1.155 2.804 5.002 3.793 9.509 3.793 5.552 0 10.389-1.924 10.389-5.936 0-2.694-2.254-4.727-7.585-6.266-2.913-.825-3.738-2.034-3.738-3.518ZM157.599 9.738c.714 0 1.374.605 1.374 1.374 0 .715-.66 1.32-1.374 1.32h-2.694v6.98c0 3.463.495 4.177 1.649 4.177.88 0 1.374-.494 1.704-.879.605-.66 1.264-.385.99.66-.66 2.638-2.364 5.606-6.047 5.606-3.682 0-5.881-2.583-5.881-7.86v-8.685h-.495a1.338 1.338 0 0 1-1.319-1.319c0-.77.55-1.32 1.264-1.374h.495c2.638-.11 3.848-1.484 4.672-3.848.44-1.264 1.154-1.923 1.979-1.923.824 0 1.209.66 1.209 1.649 0 1.181-.07 2.06-.134 2.863-.034.43-.067.837-.086 1.259h2.694ZM164.57 55.473V43.326c0-3.573-.165-4.453-1.264-5.387l-.025-.019c-.7-.538-1.13-.869-1.13-1.575 0-.824.99-1.429 3.848-2.968 2.858-1.54 4.068-1.979 5.112-1.979.934 0 1.429.55 1.429 1.43 0 .364-.04.754-.096 1.298-.129 1.26-.344 3.35-.344 7.88v8.96c.609-.587 1.261-1.183 1.877-1.746h.001v-.001c.942-.86 1.802-1.646 2.3-2.21.934-1.1.934-2.31.604-3.134-.098-.197-.225-.387-.347-.57h-.001c-.218-.327-.421-.632-.421-.914 0-.934 1.594-1.209 5.057-1.209 3.572 0 5.002.33 5.002 1.32 0 .476-.607.861-1.438 1.388-.606.384-1.33.844-2.025 1.47l-4.123 3.737c1.924 2.858 4.617 6.706 5.057 7.256.77 1.044 1.594 1.429 2.693 1.649.88.165 1.155.44 1.1.88-.055 1.044-2.639 1.978-5.882 1.978-3.353 0-4.947-1.154-6.156-2.858l-2.42-3.68-.878.876v.275c0 1.058.37 1.746.691 2.343.246.458.464.863.464 1.34 0 1.154-1.704 1.704-4.673 1.704h-.494c-2.913 0-4.672-.55-4.672-1.704 0-.477.217-.882.463-1.34.321-.597.691-1.285.691-2.343ZM90.156 35.026c-2.418 0-3.792 1.649-3.792 3.463 0 2.198 1.594 3.902 6.926 5.332 7.365 1.978 10.443 5.166 10.443 8.904 0 5.661-6.211 8.465-13.467 8.465-6.32 0-10.883-2.529-12.257-5.717-1.264-3.243 0-5.881 2.913-6.101 2.474-.165 4.068.934 4.453 3.848.384 2.913 2.913 4.562 5.716 4.562 2.419 0 5.167-1.374 5.167-3.848 0-2.198-2.419-3.408-8.63-5.167-4.892-1.484-8.41-3.957-8.41-8.135 0-5.331 5.167-8.52 11.983-8.52 5.167 0 9.124 2.31 10.443 5.387 1.265 3.188-.439 5.387-3.407 5.387-1.87 0-3.518-1.374-4.178-4.068-.495-2.253-2.254-3.792-3.903-3.792ZM140.052 45.195c0-2.639-1.649-4.672-4.398-4.672-2.693 0-5.221 2.968-6.925 6.046.032-1.548.105-2.524.158-3.234.035-.476.061-.833.061-1.163 0-.99-.384-1.485-1.264-1.485-1.044 0-2.308.495-5.222 2.09-2.803 1.538-3.407 2.143-3.407 2.967 0 .715.384 1.045 1.154 1.704.879.825.879 1.814.879 5.277v2.748c0 1.058-.352 1.746-.657 2.343-.235.458-.442.863-.442 1.34 0 1.154 1.759 1.704 4.672 1.704h.495c2.913 0 4.617-.55 4.617-1.704 0-.477-.207-.882-.442-1.34-.305-.597-.657-1.285-.657-2.343v-4.012c.824-2.694 2.418-4.837 3.627-4.837.727 0 1.282.723 1.868 1.486.655.853 1.349 1.757 2.365 1.757 1.814 0 3.518-2.034 3.518-4.672Z" /><path fill-rule="evenodd" clip-rule="evenodd" d="M150.983 41.072c-5.936 0-10.828 3.738-10.828 10.059 0 6.266 4.892 10.004 10.828 10.004 5.992 0 10.829-3.738 10.829-10.004 0-6.321-4.837-10.059-10.829-10.059Zm1.539 17.974c-2.473.605-4.452-8.355-4.452-11.708 0-2.363.385-3.957 1.264-4.122 1.375-.385 3.188 2.858 4.123 7.2.879 4.398.495 8.245-.935 8.63ZM205.492 53.88c.33-.44 1.099-.11.99.604-.55 2.528-3.793 6.65-9.565 6.65-5.221 0-9.948-3.407-9.948-9.838 0-6.321 5.606-10.224 11.048-10.224 5.057 0 7.585 2.748 7.585 5.717 0 3.188-3.683 5.716-8.52 5.716-.384 0-.769 0-1.209-.11 1.154 2.144 3.078 3.353 5.167 3.353 1.979 0 3.738-.934 4.452-1.869Zm-7.915-10.61c-1.319 0-2.693 2.144-2.693 4.728 0 .284 0 1.42.22 1.979.219.559.604.824 1.099.824 1.319 0 3.023-1.539 3.023-4.452 0-1.924-.66-3.078-1.649-3.078Z" /><path d="M117.937 43.326c0-.77-.66-1.374-1.375-1.374h-2.693c.019-.422.052-.83.086-1.26.064-.803.134-1.681.134-2.863 0-.99-.385-1.649-1.209-1.649-.825 0-1.539.66-1.979 1.924-.825 2.364-2.034 3.738-4.672 3.848h-.495a1.34 1.34 0 0 0-1.264 1.374c0 .714.605 1.319 1.319 1.319h.495v8.684c0 5.277 2.198 7.86 5.881 7.86 3.683 0 5.387-2.968 6.046-5.606.275-1.044-.384-1.319-.989-.66-.33.385-.824.88-1.704.88-1.154 0-1.649-.714-1.649-4.177v-6.981h2.693c.715 0 1.375-.605 1.375-1.32Z" /><path fill-rule="evenodd" clip-rule="evenodd" d="M26.808 46.889a6.864 6.864 0 0 1 2.995 1.963l7.999 8.998c2.263 2.546 6.414 1.815 7.671-1.35l.613-1.541a6.863 6.863 0 0 1 3.983-3.898l5.883-2.19a6.861 6.861 0 0 0 2.605-1.731l9.14-9.723a4.576 4.576 0 0 0 1.185-3.85l-1.438-9.059a6.864 6.864 0 0 0-1.206-2.93l-7.664-10.663a6.863 6.863 0 0 0-2.986-2.35l-15.32-6.236a6.863 6.863 0 0 0-3.059-.49L19.55 3.056a6.863 6.863 0 0 0-4.247 1.863L4.689 14.97a6.864 6.864 0 0 0-1.645 2.413L1.273 21.77a6.863 6.863 0 0 0 3.622 8.86l1.813.79.197.09a6.863 6.863 0 0 1 2.659 2.231l5.624 7.927a6.864 6.864 0 0 0 3.463 2.551l8.157 2.67Zm2.996-2.004a9.95 9.95 0 0 0-2.035-.931l-7.472-2.445 6.663-7.941 13.889 1.215-3.226 5.588-7.819 4.514Zm-12.132-5.053 7.806-9.302-4.15-11.403L11.34 31.03c.265.292.513.6.743.924l5.59 7.878ZM8.936 29.091l9.63-11.477H6.445c-.222.28-.403.591-.537.924l-1.772 4.388A3.775 3.775 0 0 0 6.128 27.8l1.814.79c.341.148.673.316.994.5Zm.712-14.565h10.005L17.089 7.48l-7.44 7.046Zm10.235-8.398L37.19 4.936v9.59h-14.25l-3.056-8.398Zm20.394-.461v9.698l7.47 7.47 6.605-11.44-14.075-5.728Zm16.392 7.89L45.947 32.13l19.855 1.737-1.408-8.874a3.774 3.774 0 0 0-.663-1.611l-7.062-9.824Zm7.359 23.254L44.243 35.08l-3.214 5.567 14.21 5.171c.4-.198.761-.467 1.068-.793l7.72-8.214Zm-13.222 10.68-11.862-4.317-6.646 3.837 7.812 8.788c.735.827 2.084.59 2.493-.44l.612-1.54a9.951 9.951 0 0 1 5.776-5.652l1.815-.676Zm-8.253-15.659 3.595-6.228-6.8-6.8-9.964 11.876 13.169 1.152Zm-6.237-14.218L27.77 27.798l-3.706-10.184h12.252Z" fill="#EBAD73"/>
    </symbol>

    <!-- arrow-right -->
    <symbol id="arrow-right" viewBox="0 0 16 16">
        <path d="M7.80075,3.28786949 C7.44459107,3.63568237 7.41097217,4.18549466 7.70266071,4.57138952 L7.79839868,4.68037011 L10.177,7.01883867 L2.98975207,7.01883867 C2.44312709,7.01883867 2,7.45811956 2,8 C2,8.54188044 2.44312709,8.98116133 2.98975207,8.98116133 L10.177,8.98116133 L7.79839868,11.3196299 C7.44341635,11.6686228 7.41165441,12.2185436 7.70464452,12.6034683 L7.80075,12.7121305 C8.19504279,13.0971836 8.82855128,13.0957752 9.22109786,12.7089727 L14,8 L9.22109786,3.29102728 C8.82855128,2.90422481 8.19504279,2.90281636 7.80075,3.28786949 Z" />
    </symbol>

    <!-- arrow-down -->
    <symbol id="arrow-down" viewBox="0 0 16 16">
        <path d="M12.7121305,7.80075 C12.3643176,7.44459107 11.8145053,7.41097217 11.4286105,7.70266071 L11.3196299,7.79839868 L8.98116133,10.177 L8.98116133,2.98975207 C8.98116133,2.44312709 8.54188044,2 8,2 C7.45811956,2 7.01883867,2.44312709 7.01883867,2.98975207 L7.01883867,10.177 L4.68037011,7.79839868 C4.33137718,7.44341635 3.7814564,7.41165441 3.39653173,7.70464452 L3.28786949,7.80075 C2.90281636,8.19504279 2.90422481,8.82855128 3.29102728,9.22109786 L8,14 L12.7089727,9.22109786 C13.0957752,8.82855128 13.0971836,8.19504279 12.7121305,7.80075 Z" />
    </symbol>

    <!-- arrow-external -->
    <symbol id="arrow-external" viewBox="0 0 16 16">
        <path d="M4.52712953,4.80891159 C4.52122798,5.30669483 4.88623183,5.71924298 5.36535565,5.78585691 L5.51011353,5.79522085 L8.84558563,5.76684271 L3.76343388,10.8489945 C3.37691166,11.2355167 3.37419198,11.8594734 3.75735931,12.2426407 C4.14052665,12.625808 4.76448332,12.6230883 5.15100554,12.2365661 L10.2331573,7.15441437 L10.2047792,10.4898865 C10.200544,10.9876721 10.5669376,11.3989839 11.0462958,11.4639915 L11.1910884,11.4728705 C11.7421692,11.466337 12.1891314,11.017383 12.1931931,10.4663 L12.2426407,3.75735931 L5.53370003,3.80680687 C4.98261704,3.81086858 4.53366296,4.2578308 4.52712953,4.80891159 Z" />
    </symbol>

    <!-- arrow-share -->
    <symbol id="arrow-share" viewBox="0 0 16 16">
        <path d="M4.57139 6.29734C4.18549 6.58903 3.63568 6.55541 3.28787 6.19925C2.90282 5.80496 2.90422 5.17145 3.29103 4.7789L8 0L12.709 4.7789C13.0958 5.17145 13.0972 5.80496 12.7121 6.19925L12.6035 6.29535C12.2185 6.58835 11.6686 6.55658 11.3196 6.2016L8.98116 3.823L8.98116 11.0102C8.98116 11.5569 8.54188 12 8 12C7.45812 12 7.01884 11.5569 7.01884 11.0102L7.01884 3.823L4.68037 6.2016L4.57139 6.29734Z"/>
        <path d="M3 10C3 9.44771 2.55228 9 2 9C1.44772 9 1 9.44771 1 10V14C1 14.6912 1.4112 15.2235 1.88464 15.5392C2.35754 15.8544 2.94037 16 3.5 16H12.5C13.0596 16 13.6425 15.8544 14.1154 15.5392C14.5888 15.2235 15 14.6912 15 14V10C15 9.44771 14.5523 9 14 9C13.4477 9 13 9.44771 13 10V13.879C12.9084 13.9377 12.7309 14 12.5 14H3.5C3.2691 14 3.09159 13.9377 3 13.879V10Z"/>
    </symbol>

    <!-- close -->
    <symbol id="close" viewBox="0 0 16 16">
        <path d="M3.79289 3.79289C3.40237 4.18342 3.40237 4.81658 3.79289 5.20711L6.63162 8.04584L3.79378 10.8837C3.40326 11.2742 3.40326 11.9074 3.79378 12.2979C4.1843 12.6884 4.81747 12.6884 5.20799 12.2979L8.04584 9.46005L10.8837 12.2979C11.2742 12.6884 11.9073 12.6884 12.2979 12.2979C12.6884 11.9073 12.6884 11.2742 12.2979 10.8837L9.46005 8.04584L12.2988 5.20714C12.6893 4.81661 12.6893 4.18345 12.2988 3.79292C11.9082 3.4024 11.2751 3.4024 10.8845 3.79292L8.04584 6.63162L5.20711 3.79289C4.81658 3.40237 4.18342 3.40237 3.79289 3.79289Z"/>
    </symbol>

    <!-- chevron-down -->
    <symbol id="chevron-down" viewBox="0 0 16 16">
        <path fill-rule="evenodd" clip-rule="evenodd" d="M3.29289 5.29289C3.68342 4.90237 4.31658 4.90237 4.70711 5.29289L8 8.58579L11.2929 5.29289C11.6834 4.90237 12.3166 4.90237 12.7071 5.29289C13.0976 5.68342 13.0976 6.31658 12.7071 6.70711L8.70711 10.7071C8.31658 11.0976 7.68342 11.0976 7.29289 10.7071L3.29289 6.70711C2.90237 6.31658 2.90237 5.68342 3.29289 5.29289Z" />
    </symbol>

    <!-- email -->
    <symbol id="email" viewBox="0 0 16 16">
        <path fill-rule="evenodd" clip-rule="evenodd" d="M0 2v12h16V2H0zm4.415 5.286l-3.082 3.808V4.789l3.082 2.497zm-2.76-3.953h12.69L8 8.475 1.655 3.333zM5.45 8.125L8 10.191l2.553-2.069 3.742 4.545H1.775l3.676-4.542zm6.138-.842l3.078-2.494v6.232l-3.078-3.738z" />
    </symbol>

    <!-- facebook -->
    <symbol id="facebook" viewBox="0 0 16 16">
        <path d="M15.117 0H.883C.395 0 0 .395 0 .883v14.234c0 .488.395.883.883.883h7.663V9.804H6.46V7.39h2.086V5.607c0-2.066 1.262-3.19 3.106-3.19.883 0 1.642.064 1.863.094v2.16h-1.28c-1 0-1.195.48-1.195 1.18v1.54h2.39l-.31 2.42h-2.08V16h4.077c.488 0 .883-.395.883-.883V.883C16 .395 15.605 0 15.117 0" />
    </symbol>

    <!-- twitter -->
    <symbol id="twitter" viewBox="0 0 16 16">
        <path d="M16 3.035a6.57 6.57 0 01-1.885.517 3.297 3.297 0 001.444-1.816 6.567 6.567 0 01-2.086.796A3.286 3.286 0 007.88 5.525a9.323 9.323 0 01-6.765-3.428A3.287 3.287 0 002.13 6.48a3.277 3.277 0 01-1.486-.41C.61 7.59 1.7 9.01 3.28 9.33a3.29 3.29 0 01-1.483.054 3.287 3.287 0 003.067 2.28A6.606 6.606 0 010 13.023 9.284 9.284 0 005.03 14.5c6.097 0 9.54-5.148 9.331-9.765A6.619 6.619 0 0016 3.035z" />
    </symbol>

    <!-- linkedin -->
    <symbol id="linkedin" viewBox="0 0 16 16">
        <path d="M13.632 13.635h-2.37V9.922c0-.886-.018-2.025-1.234-2.025-1.235 0-1.424.964-1.424 1.96v3.778h-2.37V6H8.51v1.04h.03c.318-.6 1.092-1.233 2.247-1.233 2.4 0 2.845 1.58 2.845 3.637v4.188zM3.558 4.955c-.762 0-1.376-.617-1.376-1.377 0-.758.614-1.375 1.376-1.375.76 0 1.376.617 1.376 1.375 0 .76-.617 1.377-1.376 1.377zm1.188 8.68H2.37V6h2.376v7.635zM14.816 0H1.18C.528 0 0 .516 0 1.153v13.694C0 15.484.528 16 1.18 16h13.635c.652 0 1.185-.516 1.185-1.153V1.153C16 .516 15.467 0 14.815 0z" />
    </symbol>

    <!-- instagram -->
    <symbol id="instagram" viewBox="0 0 16 16">
        <path d="M8 1.442c2.136 0 2.39.008 3.233.047 2.168.098 3.181 1.127 3.28 3.279.038.843.046 1.097.046 3.233s-.008 2.389-.046 3.232c-.1 2.15-1.11 3.181-3.28 3.28-.844.038-1.096.046-3.233.046-2.136 0-2.39-.008-3.233-.046-2.173-.1-3.18-1.133-3.279-3.28-.039-.844-.047-1.096-.047-3.233 0-2.136.009-2.389.047-3.233.1-2.151 1.11-3.18 3.28-3.279C5.61 1.45 5.863 1.442 8 1.442zM8 0C5.827 0 5.555.01 4.702.048 1.797.181.182 1.793.049 4.701.009 5.555 0 5.827 0 8s.01 2.445.048 3.299c.133 2.905 1.745 4.52 4.653 4.653C5.555 15.991 5.827 16 8 16s2.445-.01 3.299-.048c2.902-.133 4.521-1.745 4.652-4.653.04-.854.049-1.126.049-3.299s-.01-2.445-.048-3.298c-.13-2.903-1.745-4.52-4.653-4.653C10.445.009 10.173 0 8 0zm0 3.892a4.108 4.108 0 100 8.216 4.108 4.108 0 000-8.216zm0 6.775a2.666 2.666 0 110-5.333 2.666 2.666 0 010 5.333zm4.27-7.897a.96.96 0 100 1.92.96.96 0 000-1.92z" />
    </symbol>

    <!-- youtube -->
    <symbol id="youtube" viewBox="0 0 16 16">
        <path d="M13.0767 2.12275C10.674 1.95875 5.32267 1.95942 2.92333 2.12275C0.325333 2.30008 0.0193333 3.86942 0 8.00008C0.0193333 12.1234 0.322667 13.6994 2.92333 13.8774C5.32333 14.0408 10.674 14.0414 13.0767 13.8774C15.6747 13.7001 15.9807 12.1308 16 8.00008C15.9807 3.87675 15.6773 2.30075 13.0767 2.12275V2.12275ZM6 10.6668V5.33342L11.3333 7.99542L6 10.6668V10.6668Z" />
    </symbol>

    <!-- tiktok -->
    <symbol id="tiktok" viewBox="0 0 16 16">
        <path d="M13.9998 6.55968C12.624 6.56297 11.282 6.13391 10.1633 5.33312V10.9181C10.1629 11.9525 9.84673 12.9622 9.25705 13.812C8.66737 14.6619 7.83229 15.3115 6.86346 15.6739C5.89464 16.0363 4.83825 16.0944 3.83555 15.8402C2.83286 15.5861 1.93165 15.0319 1.25243 14.2517C0.57321 13.4716 0.148357 12.5026 0.0346788 11.4745C-0.0789996 10.4464 0.123915 9.40802 0.616291 8.49832C1.10867 7.58862 1.86703 6.85092 2.78999 6.38386C3.71294 5.9168 4.75649 5.74265 5.78109 5.88468V8.69374C5.31223 8.54626 4.80876 8.55071 4.34257 8.70644C3.87639 8.86217 3.47133 9.16122 3.18525 9.56089C2.89916 9.96056 2.74668 10.4404 2.74957 10.9319C2.75247 11.4234 2.91059 11.9014 3.20137 12.2977C3.49214 12.694 3.90069 12.9882 4.36868 13.1384C4.83667 13.2887 5.34016 13.2872 5.80725 13.1342C6.27434 12.9812 6.68114 12.6845 6.96957 12.2866C7.25799 11.8886 7.41329 11.4096 7.41328 10.9181V0H10.1633C10.1614 0.232231 10.1808 0.464145 10.2214 0.692812V0.692812C10.317 1.20327 10.5157 1.68888 10.8053 2.11991C11.095 2.55095 11.4695 2.91837 11.9061 3.19968C12.5271 3.61034 13.2553 3.82922 13.9998 3.82906V6.55968Z"/>
    </symbol>
</svg>
