<svg width="32" height="36" fill="none" xmlns="http://www.w3.org/2000/svg"><g clip-path="url(#a)"><path d="m9.341 33.856.608-3.858-1.353-.03h-6.46L6.624 1.5a.367.367 0 0 1 .365-.311h10.892c3.617 0 6.112.753 7.415 2.238.611.697 1 1.425 1.188 2.226.198.84.201 1.845.008 3.07l-.013.09v.785l.61.346c.515.273.924.585 1.237.943.523.596.86 1.353 1.003 2.25.148.924.1 2.022-.142 3.266-.28 1.43-.73 2.677-1.338 3.697a7.602 7.602 0 0 1-2.12 2.322c-.808.574-1.768 1.01-2.854 1.288-1.052.274-2.252.412-3.568.412h-.847a2.57 2.57 0 0 0-1.657.61c-.464.4-.77.945-.864 1.542l-.064.347-1.073 6.8-.05.25c-.012.078-.034.118-.066.145a.18.18 0 0 1-.112.04H9.341Z" fill="#253B80"/><path d="M27.669 8.904c-.033.207-.07.42-.112.638-1.436 7.376-6.35 9.923-12.628 9.923h-3.196c-.767 0-1.414.558-1.534 1.315L8.563 31.157 8.1 34.1a.818.818 0 0 0 .807.945h5.668c.671 0 1.242-.487 1.347-1.15l.056-.287 1.067-6.773.069-.372a1.363 1.363 0 0 1 1.347-1.152h.848c5.491 0 9.79-2.23 11.047-8.681.525-2.696.253-4.946-1.136-6.53a5.42 5.42 0 0 0-1.551-1.195Z" fill="#179BD7"/><path d="M26.166 8.304a11.3 11.3 0 0 0-1.397-.31 17.75 17.75 0 0 0-2.817-.205h-8.538a1.361 1.361 0 0 0-1.346 1.152l-1.816 11.504-.053.335a1.552 1.552 0 0 1 1.534-1.315h3.196c6.277 0 11.192-2.549 12.628-9.923.043-.218.08-.43.112-.638a7.652 7.652 0 0 0-1.181-.499 10.437 10.437 0 0 0-.322-.1Z" fill="#222D65"/><path d="M12.068 8.94a1.357 1.357 0 0 1 1.346-1.15h8.538c1.011 0 1.955.066 2.817.205a11.308 11.308 0 0 1 1.72.41c.424.14.817.307 1.18.499.428-2.726-.003-4.582-1.476-6.262C24.568.792 21.636 0 17.883 0H6.992c-.767 0-1.42.557-1.539 1.316L.915 30.076a.936.936 0 0 0 .923 1.081h6.725l1.689-10.712L12.068 8.94Z" fill="#253B80"/></g><defs><clipPath id="a"><path fill="#fff" transform="translate(.903)" d="M0 0h30.194v36H0z"/></clipPath></defs></svg>