<svg width="16" height="16" viewBox="0 0 16 16" fill="none" xmlns="http://www.w3.org/2000/svg">
<path fill-rule="evenodd" clip-rule="evenodd" d="M6.11128 11.578C6.35574 11.658 6.57708 11.7952 6.75713 11.9778C6.77664 11.9976 6.79567 12.0179 6.81419 12.0387L8.69172 14.1509C9.22283 14.7483 10.1972 14.5768 10.4924 13.8339L10.6361 13.4722C10.8043 13.0487 11.144 12.7163 11.571 12.5573L12.9519 12.0432C13.1843 11.9566 13.3936 11.8176 13.5635 11.6369L15.7086 9.35485C15.7275 9.3347 15.7456 9.31391 15.7628 9.29255C15.9222 9.09438 16.0058 8.84636 15.9997 8.59333C15.9985 8.54597 15.9942 8.49843 15.9867 8.45102L15.6493 6.32479C15.6099 6.07662 15.513 5.8411 15.3664 5.63706L13.5673 3.13425C13.3903 2.88803 13.1474 2.69677 12.8666 2.58246L9.2707 1.11885C9.04326 1.02628 8.79767 0.98693 8.55269 1.00381L4.40728 1.28947C4.03431 1.31517 3.68189 1.4698 3.41043 1.72685L0.919534 4.08557C0.751688 4.24451 0.620016 4.43772 0.533461 4.65206L0.117569 5.68195C-0.209183 6.49111 0.167792 7.41331 0.967792 7.76188L1.3934 7.94732C1.40896 7.9541 1.42439 7.96111 1.43969 7.96836C1.66113 8.07328 1.85556 8.22728 2.00831 8.41842C2.02744 8.44236 2.04593 8.46687 2.06373 8.49195L3.38379 10.3525C3.41736 10.3998 3.45334 10.4451 3.49152 10.4882C3.65415 10.6719 3.85677 10.8162 4.08403 10.9098C4.12089 10.925 4.15842 10.9388 4.19651 10.9513L6.11128 11.578ZM6.81457 11.1076C6.66466 11.0174 6.50446 10.9439 6.33676 10.889L4.58306 10.3151L6.14699 8.45128L9.40691 8.73648L8.64964 10.0481L6.81457 11.1076ZM3.96692 9.92167L5.79909 7.73817L4.82494 5.0617L2.48064 7.85552C2.5428 7.9241 2.60102 7.99653 2.65492 8.0725L3.96692 9.92167ZM1.91628 7.40038L4.17671 4.70651H1.33153C1.27961 4.77232 1.23716 4.84535 1.20561 4.92348L0.789715 5.95338C0.610001 6.39841 0.817337 6.90563 1.25734 7.09734L1.68295 7.28278C1.7631 7.3177 1.84099 7.35699 1.91628 7.40038ZM2.08356 3.98163H4.43182L3.82993 2.32793L2.08356 3.98163ZM4.48585 2.01065L8.5479 1.73074V3.98163H5.20322L4.48585 2.01065ZM9.27278 1.90232V4.17871L11.0261 5.93201L12.5763 3.24693L9.27278 1.90232ZM13.1204 3.75438L10.6036 8.11353L15.2639 8.52126L14.9334 6.4384C14.9117 6.3019 14.8584 6.17237 14.7778 6.06015L13.1204 3.75438ZM14.8475 9.21248L10.2037 8.80619L9.44935 10.1127L12.7846 11.3267C12.8783 11.28 12.9633 11.217 13.0353 11.1404L14.8475 9.21248ZM11.7441 11.7194L8.95992 10.706L7.39999 11.6066L9.2335 13.6693C9.40611 13.8634 9.72278 13.8077 9.81871 13.5663L9.96243 13.2045C10.2064 12.5905 10.6989 12.1085 11.3181 11.878L11.7441 11.7194ZM9.80682 8.04382L10.6509 6.58192L9.05481 4.98587L6.7158 7.77339L9.80682 8.04382ZM8.34296 4.70651L6.33712 7.09698L5.46706 4.70651H8.34296Z" fill="black"/>
</svg>
