<svg xmlns="http://www.w3.org/2000/svg">

    <!-- Home -->
    <symbol id="home" viewBox="0 0 22 22">
        <path fill="none" d="M1 10.75L9.5 2C11 0.5 11 0.5 12.5 2L21 10.75M3 8.74998V17C3 19 4 20 6 20H8V14.1592C8 13.5382 8.504 13.0342 9.125 13.0342H12.875C13.496 13.0342 14 13.5382 14 14.1592V20H17C19 20 19 19 19 17V8.74999M7 20H15.25" stroke-width="2" stroke-linecap="round" stroke-linejoin="round"/>
    </symbol>

    <!-- Globe -->
    <symbol id="globe" viewBox="0 0 22 22">
        <path fill="none" d="M11 21C13.2167 20.9999 15.3705 20.2636 17.1234 18.9067C18.8762 17.5498 20.1288 15.6492 20.6844 13.5033M11 21C8.78334 20.9999 6.62949 20.2636 4.87664 18.9067C3.12379 17.5498 1.8712 15.6492 1.31556 13.5033M11 21C13.7611 21 16 16.5222 16 11C16 5.47778 13.7611 1 11 1M11 21C8.23889 21 6 16.5222 6 11C6 5.47778 8.23889 1 11 1M20.6844 13.5033C20.89 12.7033 21 11.8644 21 11C21.0027 9.28012 20.5598 7.58888 19.7144 6.09111M20.6844 13.5033C17.7213 15.146 14.388 16.0053 11 16C7.48667 16 4.18556 15.0944 1.31556 13.5033M1.31556 13.5033C1.10528 12.6855 0.999252 11.8444 1 11C1 9.21667 1.46667 7.54111 2.28556 6.09111M11 1C12.7736 0.999261 14.5155 1.4704 16.0469 2.36507C17.5783 3.25975 18.8441 4.54574 19.7144 6.09111M11 1C9.2264 0.999261 7.48453 1.4704 5.95312 2.36507C4.42171 3.25975 3.1559 4.54574 2.28556 6.09111M19.7144 6.09111C17.2952 8.18659 14.2006 9.33794 11 9.33333C7.66889 9.33333 4.62223 8.11111 2.28556 6.09111" stroke-width="2" stroke-linecap="round" stroke-linejoin="round"/>
    </symbol>

    <!-- Envelope -->
    <symbol id="envelope" viewBox="0 0 22 22">
        <path fill="none" d="M21 5.30769V16.6923C21 17.3043 20.7569 17.8913 20.3241 18.3241C19.8913 18.7569 19.3043 19 18.6923 19H3.30769C2.69565 19 2.10868 18.7569 1.67591 18.3241C1.24313 17.8913 1 17.3043 1 16.6923L1 5.30769M21 5.30769C21 4.69565 20.7569 4.10868 20.3241 3.67591C19.8913 3.24313 19.3043 3 18.6923 3H3.30769C2.69565 3 2.10868 3.24313 1.67591 3.67591C1.24313 4.10868 1 4.69565 1 5.30769M21 5.30769V5.55692C21 5.95092 20.8992 6.33836 20.7071 6.68235C20.515 7.02634 20.238 7.31542 19.9026 7.52205L12.2103 12.2554C11.8464 12.4795 11.4274 12.5982 11 12.5982C10.5726 12.5982 10.1536 12.4795 9.78974 12.2554L2.09744 7.52308C1.76197 7.31645 1.48499 7.02737 1.29289 6.68338C1.10079 6.33939 0.999956 5.95194 1 5.55795V5.30769" stroke-width="2" stroke-linecap="round" stroke-linejoin="round"/>
    </symbol>

    <!-- Hand -->
    <symbol id="hand" viewBox="0 0 22 22">
        <path fill="none" d="M9 3.92857C9 3.73159 8.9612 3.53653 8.88582 3.35455C8.81044 3.17256 8.69995 3.0072 8.56066 2.86791C8.42137 2.72862 8.25601 2.61813 8.07403 2.54275C7.89204 2.46737 7.69698 2.42857 7.5 2.42857C7.30302 2.42857 7.10796 2.46737 6.92597 2.54275C6.74399 2.61813 6.57863 2.72862 6.43934 2.86791C6.30005 3.0072 6.18956 3.17256 6.11418 3.35455C6.0388 3.53653 6 3.73159 6 3.92857V6.78571M9 3.92857V2.5C9 2.10218 9.15804 1.72064 9.43934 1.43934C9.72064 1.15804 10.1022 1 10.5 1C10.8978 1 11.2794 1.15804 11.5607 1.43934C11.842 1.72064 12 2.10218 12 2.5V3.92857M9 3.92857V10M6 6.78571C6 6.38789 5.84196 6.00636 5.56066 5.72505C5.27936 5.44375 4.89782 5.28571 4.5 5.28571C4.10218 5.28571 3.72064 5.44375 3.43934 5.72505C3.15804 6.00636 3 6.38789 3 6.78571V14.5714C3 16.2764 3.67729 17.9115 4.88289 19.1171C6.08848 20.3227 7.72361 21 9.42857 21H11.3505C12.6765 20.9998 13.9482 20.473 14.8857 19.5352L16.5352 17.8857C17.473 16.9482 17.9998 15.6765 18 14.3505L18.0029 12.4229C18.0038 12.2543 18.0716 12.0929 18.1914 11.9743C18.3308 11.835 18.4413 11.6696 18.5167 11.4875C18.5921 11.3055 18.6309 11.1104 18.6309 10.9133C18.6309 10.7163 18.5921 10.5212 18.5167 10.3392C18.4413 10.1571 18.3308 9.99171 18.1914 9.85238C18.0521 9.71305 17.8867 9.60254 17.7047 9.52713C17.5226 9.45173 17.3275 9.41292 17.1305 9.41292C16.9334 9.41292 16.7383 9.45173 16.5563 9.52713C16.3743 9.60254 16.2089 9.71305 16.0695 9.85238C15.39 10.5311 15.0065 11.451 15.0029 12.4114M6 6.78571V11M12 3.92857V9M12 3.92857C12 3.53075 12.158 3.14922 12.4393 2.86791C12.7206 2.58661 13.1022 2.42857 13.5 2.42857C13.8978 2.42857 14.2794 2.58661 14.5607 2.86791C14.842 3.14922 15 3.53075 15 3.92857V13.8571M15 13.8571C14.4374 13.8569 13.8803 13.9676 13.3606 14.183C12.8409 14.3984 12.3974 14.6018 12 15M15 13.8571H15.0019" stroke-width="2" stroke-linecap="round" stroke-linejoin="round"/>
    </symbol>

    <!-- facebook -->
    <symbol id="facebook" viewBox="0 0 16 16">
        <path d="M8 0C3.58176 0 0 3.58176 0 8C0 11.7517 2.58304 14.8998 6.06752 15.7645V10.4448H4.41792V8H6.06752V6.94656C6.06752 4.22368 7.29984 2.9616 9.97312 2.9616C10.48 2.9616 11.3546 3.06112 11.7123 3.16032V5.37632C11.5235 5.35648 11.1955 5.34656 10.7882 5.34656C9.47648 5.34656 8.9696 5.84352 8.9696 7.13536V8H11.5827L11.1338 10.4448H8.9696V15.9414C12.9309 15.463 16.0003 12.0902 16.0003 8C16 3.58176 12.4182 0 8 0Z" />
    </symbol>

    <!-- linkedin -->
    <symbol id="linkedin" viewBox="0 0 16 16">
        <path d="M13.632 13.635h-2.37V9.922c0-.886-.018-2.025-1.234-2.025-1.235 0-1.424.964-1.424 1.96v3.778h-2.37V6H8.51v1.04h.03c.318-.6 1.092-1.233 2.247-1.233 2.4 0 2.845 1.58 2.845 3.637v4.188zM3.558 4.955c-.762 0-1.376-.617-1.376-1.377 0-.758.614-1.375 1.376-1.375.76 0 1.376.617 1.376 1.375 0 .76-.617 1.377-1.376 1.377zm1.188 8.68H2.37V6h2.376v7.635zM14.816 0H1.18C.528 0 0 .516 0 1.153v13.694C0 15.484.528 16 1.18 16h13.635c.652 0 1.185-.516 1.185-1.153V1.153C16 .516 15.467 0 14.815 0z" />
    </symbol>

    <!-- instagram -->
    <symbol id="instagram" viewBox="0 0 16 16">
        <path d="M8 1.442c2.136 0 2.39.008 3.233.047 2.168.098 3.181 1.127 3.28 3.279.038.843.046 1.097.046 3.233s-.008 2.389-.046 3.232c-.1 2.15-1.11 3.181-3.28 3.28-.844.038-1.096.046-3.233.046-2.136 0-2.39-.008-3.233-.046-2.173-.1-3.18-1.133-3.279-3.28-.039-.844-.047-1.096-.047-3.233 0-2.136.009-2.389.047-3.233.1-2.151 1.11-3.18 3.28-3.279C5.61 1.45 5.863 1.442 8 1.442zM8 0C5.827 0 5.555.01 4.702.048 1.797.181.182 1.793.049 4.701.009 5.555 0 5.827 0 8s.01 2.445.048 3.299c.133 2.905 1.745 4.52 4.653 4.653C5.555 15.991 5.827 16 8 16s2.445-.01 3.299-.048c2.902-.133 4.521-1.745 4.652-4.653.04-.854.049-1.126.049-3.299s-.01-2.445-.048-3.298c-.13-2.903-1.745-4.52-4.653-4.653C10.445.009 10.173 0 8 0zm0 3.892a4.108 4.108 0 100 8.216 4.108 4.108 0 000-8.216zm0 6.775a2.666 2.666 0 110-5.333 2.666 2.666 0 010 5.333zm4.27-7.897a.96.96 0 100 1.92.96.96 0 000-1.92z" />
    </symbol>

    <!-- youtube -->
    <symbol id="youtube" viewBox="0 0 16 16">
        <path d="M13.0767 2.12275C10.674 1.95875 5.32267 1.95942 2.92333 2.12275C0.325333 2.30008 0.0193333 3.86942 0 8.00008C0.0193333 12.1234 0.322667 13.6994 2.92333 13.8774C5.32333 14.0408 10.674 14.0414 13.0767 13.8774C15.6747 13.7001 15.9807 12.1308 16 8.00008C15.9807 3.87675 15.6773 2.30075 13.0767 2.12275V2.12275ZM6 10.6668V5.33342L11.3333 7.99542L6 10.6668V10.6668Z" />
    </symbol>

    <!-- tiktok -->
    <symbol id="tiktok" viewBox="0 0 16 16">
        <path d="M13.9998 6.55968C12.624 6.56297 11.282 6.13391 10.1633 5.33312V10.9181C10.1629 11.9525 9.84673 12.9622 9.25705 13.812C8.66737 14.6619 7.83229 15.3115 6.86346 15.6739C5.89464 16.0363 4.83825 16.0944 3.83555 15.8402C2.83286 15.5861 1.93165 15.0319 1.25243 14.2517C0.57321 13.4716 0.148357 12.5026 0.0346788 11.4745C-0.0789996 10.4464 0.123915 9.40802 0.616291 8.49832C1.10867 7.58862 1.86703 6.85092 2.78999 6.38386C3.71294 5.9168 4.75649 5.74265 5.78109 5.88468V8.69374C5.31223 8.54626 4.80876 8.55071 4.34257 8.70644C3.87639 8.86217 3.47133 9.16122 3.18525 9.56089C2.89916 9.96056 2.74668 10.4404 2.74957 10.9319C2.75247 11.4234 2.91059 11.9014 3.20137 12.2977C3.49214 12.694 3.90069 12.9882 4.36868 13.1384C4.83667 13.2887 5.34016 13.2872 5.80725 13.1342C6.27434 12.9812 6.68114 12.6845 6.96957 12.2866C7.25799 11.8886 7.41329 11.4096 7.41328 10.9181V0H10.1633C10.1614 0.232231 10.1808 0.464145 10.2214 0.692812V0.692812C10.317 1.20327 10.5157 1.68888 10.8053 2.11991C11.095 2.55095 11.4695 2.91837 11.9061 3.19968C12.5271 3.61034 13.2553 3.82922 13.9998 3.82906V6.55968Z"/>
    </symbol>

    <!-- threads -->
    <symbol id="threads" viewBox="0 0 16 16">
      <path d="M11.7114 7.41569C11.6425 7.38266 11.5725 7.35087 11.5016 7.32043C11.3781 5.04485 10.1347 3.74208 8.04682 3.72875C8.03737 3.72869 8.02796 3.72869 8.0185 3.72869C6.7697 3.72869 5.73109 4.26174 5.09183 5.23173L6.24008 6.0194C6.71763 5.29486 7.4671 5.1404 8.01905 5.1404C8.02542 5.1404 8.03182 5.1404 8.03813 5.14046C8.72558 5.14484 9.24433 5.34472 9.58008 5.7345C9.82442 6.01828 9.98783 6.41042 10.0687 6.90532C9.45925 6.80173 8.80008 6.76987 8.09542 6.81027C6.11039 6.92462 4.83426 8.08233 4.91997 9.691C4.96346 10.507 5.36997 11.209 6.06458 11.6676C6.65187 12.0553 7.40825 12.2448 8.19436 12.2019C9.2325 12.145 10.0469 11.7489 10.6151 11.0247C11.0466 10.4747 11.3195 9.76192 11.44 8.86383C11.9347 9.16242 12.3014 9.55533 12.5039 10.0277C12.8482 10.8306 12.8683 12.15 11.7917 13.2257C10.8485 14.168 9.71467 14.5757 8.00112 14.5883C6.10035 14.5742 4.66282 13.9646 3.72817 12.7764C2.85296 11.6638 2.40064 10.0568 2.38377 8C2.40064 5.94315 2.85296 4.33613 3.72817 3.22356C4.66282 2.03541 6.10032 1.42583 8.0011 1.41171C9.91567 1.42594 11.3782 2.03845 12.3487 3.23233C12.8245 3.8178 13.1832 4.55407 13.4197 5.41253L14.7653 5.05352C14.4787 3.99685 14.0276 3.08631 13.4137 2.33117C12.1697 0.800557 10.3502 0.0162623 8.00579 0H7.99641C5.6568 0.0162058 3.85767 0.803483 2.64902 2.33994C1.57349 3.7072 1.0187 5.60964 1.00006 7.99438L1 8L1.00006 8.00563C1.0187 10.3903 1.57349 12.2928 2.64902 13.6601C3.85767 15.1965 5.6568 15.9838 7.99641 16H8.00579C10.0858 15.9856 11.552 15.441 12.7598 14.2343C14.3401 12.6555 14.2925 10.6766 13.7717 9.46175C13.398 8.59058 12.6856 7.88302 11.7114 7.41569ZM8.12004 10.7923C7.25004 10.8413 6.3462 10.4508 6.30163 9.61433C6.2686 8.99417 6.74298 8.30217 8.17343 8.21973C8.33725 8.21028 8.498 8.20567 8.65592 8.20567C9.1755 8.20567 9.66158 8.25614 10.1035 8.35275C9.93867 10.4113 8.97183 10.7455 8.12004 10.7923Z"/>
    </symbol>
</svg>
